<?xml version="1.0" encoding="UTF-8"?> <svg xmlns="http://www.w3.org/2000/svg" id="Layer_1" viewBox="0 0 516.6 86.6"><style>.st0{fill:#fff}</style><path class="st0" d="M90.6 86.6c-.4-.9-1.1-1.7-1.1-2.6-.1-3.9-.1-7.9-.1-12.1.9-.1 1.7-.2 2.5-.2H137c4.4 0 4.7-.3 4.7-4.8V19.5c0-4.5-.3-4.9-4.9-4.8-14.9 0-29.7.1-44.6.2h-2.7V2.2c0-1.3.8-2.1 2.2-2.1h61.5c2.9 0 3.4.4 3.4 3.3v80c0 1.1-.8 2.2-1.2 3.3-21.7-.1-43.2-.1-64.8-.1zM0 1.2C1 .8 2 0 3 0h61.1c2.5 0 3 .5 3 3 0 3.1-.1 6.2 0 9.3.1 2-.5 2.6-2.5 2.6-14.7-.1-29.3-.2-44-.2-5.7 0-5.7 0-5.7 5.7v47.4c0 3.5.4 3.9 4 3.9h45.7c2 0 2.6.6 2.5 2.5-.2 2.9.1 5.9-.1 8.8-.1 1.2-.7 2.4-1.1 3.6h-66C0 58.1 0 29.7 0 1.2z"></path><path class="st0" d="M89.4 17.3H136.7c2 0 2.6.5 2.6 2.5-.1 15.7-.1 31.3 0 47 0 1.9-.6 2.5-2.5 2.4-15-.1-30 0-45.1 0-.7 0-1.4-.1-2.3-.1 0-4.3-.1-8.3 0-12.4 0-1.8 1.3-2.2 2.9-2.2h28.9c2.4 0 3.1-.7 3.1-3.1V35.2c0-2.5-.7-3.1-3.3-3.1H94.9c-5.5 0-5.5 0-5.5-5.4v-9.4zM67.1 17.3V30c0 1.2-.8 1.9-2.1 1.9-3.7 0-7.3.2-11 .2H35.5c-2.6 0-3.1.6-3.1 3.2v16c0 2.7.5 3.2 3.3 3.2h28c3 0 3.5.5 3.5 3.5v9.3c0 1.3-.3 2-1.8 1.9H19.3c-1.4 0-1.9-.4-1.9-1.9V19c0-1.1.2-1.8 1.5-1.8 15.9.1 31.8.1 48.2.1zM211.3 39.9c-6.4 8.8-19.6 9.8-27.4 2.2-8.7-8.4-8.2-24.5 1-32.2 7.6-6.4 19.9-5.6 26.2 2-1.6 2-3.3 4.1-5 6.3-.9-.7-1.6-1.3-2.3-1.9-6.5-4.9-14.5-2.4-17 5.4-1.1 3.5-1 6.9.4 10.3 2.9 7.1 10.5 9.2 16.6 4.6.8-.6 1.6-1.4 2.6-2.2 1.6 1.8 3.2 3.6 4.9 5.5zM422.3 11.8c-1.7 2.2-3.3 4.2-5 6.4-.7-.5-1.3-1-1.9-1.5-3.4-2.7-7.2-4-11.4-2.1s-6.1 5.5-6.7 9.9c-.4 3.3 0 6.5 1.8 9.3 3.3 5.5 9.7 6.9 15.1 3.3 1.1-.8 2.1-1.7 3.3-2.7 1.6 1.8 3.2 3.6 5 5.5-3 3.8-6.7 6.2-11.5 7-13.7 2.2-23.5-9.2-22.1-22.8.9-9.2 6.3-15.9 14.1-17.8 7.3-1.8 13.8-.3 19.3 5.5zM291.5 46.4h-8c0-2.3-.2-4.6 0-6.9.7-6.2-1-11.6-4.5-16.8-3.1-4.6-5.6-9.5-8.4-14.3l-1.1-2.2c3.1 0 5.8-.1 8.6.1.5 0 1.2.9 1.5 1.5 2.6 4.6 5.1 9.3 7.8 14.3.5-.7.8-1.2 1.1-1.7 2.3-4.1 4.6-8.3 6.8-12.5.7-1.4 1.6-1.9 3.2-1.8 2.1.1 4.3 0 6.9 0-.5.9-.8 1.6-1.2 2.3-3.9 6.8-7.9 13.5-11.8 20.3-.6 1.1-.9 2.4-1 3.6.1 4.7.1 9.3.1 14.1zM480.7 6.3c3 0 5.6-.1 8.2.1.7 0 1.5.8 1.8 1.4 2.3 4.1 4.5 8.3 6.8 12.5.3.6.7 1.2 1.2 2.1 2.7-4.8 5.2-9.3 7.6-13.8.8-1.6 1.8-2.4 3.6-2.2 2.1.2 4.1 0 6.6 0-.5 1-.8 1.6-1.2 2.3-3.9 6.8-7.9 13.5-11.7 20.3-.6 1.1-1 2.5-1 3.8-.1 4.5 0 9 0 13.7h-8c0-4-.1-7.9 0-11.8.1-2.6-.5-4.8-1.9-7.1-3.7-6.1-7.2-12.4-10.8-18.6-.2-.9-.6-1.6-1.2-2.7zM465.7 46.4h-8v-32h-11.1v-8h30.2c0 2.4.1 4.7-.1 6.9 0 .4-1.1 1-1.7 1-3.1.1-6.1 0-9.4 0 .1 10.9.1 21.4.1 32.1zM265.5 14.4h-10.8v31.9h-8V14.4h-11v-8h29.8v8zM330.8 15.8h6.5v7.3h-6.4c0 4.9-.1 9.5 0 14.2 0 1.4 1.2 2.1 2.6 2 1.2-.1 2.4-.4 3.8-.6 0 1.9.1 3.8-.1 5.7-.1.6-.8 1.5-1.4 1.6-2.6.4-5.2.9-7.8.6-3.1-.4-4.8-2.9-5-6.4-.2-4.7-.1-9.5-.2-14.2v-2.6c-1.2-.1-2.1-.1-3.2-.2v-7c3.2-.8 3.2-.8 3.2-4.2V8.1h7.8c.2 2.4.2 4.8.2 7.7zM219.7 6.4h7.7v40h-7.7v-40zM438.5 46.4h-7.7v-40h7.7v40zM220.2 60.1c.5.5 1.3.9 1.3 1.4 0 4.2.2 8.5-.2 12.7-.4 4.3-3.1 6.4-7.2 6.4-4.2 0-7-2.1-7.4-6.4-.4-4.2-.3-8.4-.2-12.7 0-.5.9-.9 1.3-1.4.2.1.4.3.6.4V71c0 1.2.1 2.4.4 3.6.7 2.6 2.7 4.1 5.4 4 2.6-.1 4.6-1.5 5-4.2s.3-5.4.4-8.1c.1-1.9 0-3.7 0-5.6l.6-.6zM242.3 62.5c-.4.5-.8 1-1.1 1.4-.3-.1-.5-.2-.7-.3-1.7-.6-3.3-1.4-5-1.6-1.7-.2-3.1.8-3.4 2.6-.4 2 .7 3.2 2.4 3.8 1.5.5 3 .9 4.5 1.4 3.1 1.1 4.3 3.1 3.8 6.1-.4 2.6-2.5 4.4-5.5 4.6-3.1.2-5.2-.6-8-3.1l.9-1.5c.3.1.5.1.7.2 1.7 1.5 3.7 2.5 6.1 2.3 1.9-.1 3.4-.8 3.8-2.9.4-2.1-.8-3.2-2.7-3.8-1.4-.5-2.9-.8-4.3-1.3-2.9-1-4-2.7-3.8-5.5.2-2.5 1.8-4.3 4.6-5 2.5-.4 5.3.5 7.7 2.6zM257.6 80c-1.8.6-2.1-.1-2.1-1.4V65v-2.7c-1.6 0-3.1-.1-4.6 0-1.4.1-1.8-.5-1.4-1.9h13.9c.7 2.3-.9 1.8-2 1.9h-3.8V80zM320.9 78.3c3.1 0 5.8-.1 8.5 0 .6 0 1.2.6 1.8.8-.6.3-1.3 1-1.9 1-3.4.1-6.7 0-10.4 0v-4.9-13.4c0-1.4.3-2.1 2-1.4v17.9zM340.4 80.4c-.4-.6-1.2-1.1-1.2-1.7-.1-5.7-.1-11.3 0-17 0-.6.7-1.1 1.1-1.7.2.1.5.2.7.4v19.5c-.2.2-.4.4-.6.5zM358.1 15.2c-9.9-.3-17.3 8.7-15.5 18.8 1.6 9 8.8 14.3 17.7 12.9 7.2-1.1 12.4-7.8 12.4-15.9 0-8.9-6.2-15.7-14.6-15.8zm4.1 22.8c-.6.5-1.2.9-1.9 1.2-5 2-9.9-2.1-10-7.9v-1-.1c.5-4.4 3.2-7.4 7-7.5h.8c4 .2 6.9 3.9 6.9 8.7 0 2.7-1.1 5.1-2.8 6.6zM281.2 72.3c.5-.2.8-.4 1.1-.5 2.9-1.4 4.2-3.7 3.6-6.8-.5-2.8-2.7-4.6-5.9-4.7-2.7-.1-5.4 0-8.4 0-.1.8-.1 1.4-.1 2 0 5.6 0 11.2.1 16.8 0 .5.8.9 1.3 1.4.2-.1.4-.3.6-.4v-7.2c4.1-1 5.1-.7 7.2 2.4.8 1.2 1.7 2.4 2.5 3.7.7 1.2 1.6 1.7 3.1.9-1.7-2.5-3.3-5-5.1-7.6zm-2.1-1.9c-1.8.2-3.7.1-5.5.2v-6.1-2-.1c2.5 0 4.8-.2 7.1.1 1.4.2 2.4.9 2.9 2.2.1.2.1.4.2.6 0 .1 0 .3.1.4 0 .1 0 .2.1.3v.1c.1 2-1 3.8-3 4.1-.7.1-1.3.1-1.9.2zM191.9 61.3c-.2-.5-1-1.1-1.4-1-.6 0-1.3.6-1.5 1.1-1.7 3.9-3.3 7.8-4.9 11.7-.9 2.2-1.9 4.5-2.8 6.8.3.2.5.4.7.6.6-.6 1.7-1.1 1.8-1.7.7-3.6 3-4.4 6.2-3.9.4.1.8.1 1.1 0 3.1-.5 5.2.4 5.8 3.8.3 1.3 1.2 1.9 2.7 1.2-2.6-6.2-5.2-12.4-7.7-18.6zm-5.6 11.5c1.3-3.3 2.6-6.4 4.1-10.1.4.9.7 1.8 1.1 2.7 1 2.6 2 5 3 7.4h-8.2zM310.6 78.4c-2.2-5.5-4.5-11-6.8-16.5-.3-.6-1.1-1.5-1.6-1.5-.6 0-1.4.8-1.7 1.5-2.3 5.4-4.5 10.7-6.7 16.1-.3.7-.5 1.4-.8 2.1.2.2.4.3.6.5.6-.6 1.7-1.1 1.8-1.7.7-3.6 3-4.4 6.2-3.9.5.1 1 0 1.5 0 3.9 0 3.9 0 5.3 3.5.5 1.2.9 2.2 2.7 1.5-.2-.6-.3-1.2-.5-1.6zM298 72.8c1.3-3.3 2.5-6.4 4.1-10.1.4.9.7 1.8 1.1 2.7 1 2.6 2 5 3 7.4H298zM359.5 61.1c-.2-.4-1-.8-1.5-.8-.5.1-1.1.6-1.3 1.1-1.2 2.8-2.3 5.7-3.5 8.5-1.4 3.3-2.7 6.7-4.1 10l.6.6c.6-.5 1.7-1 1.8-1.6.7-3.5 3-4.4 6.2-3.9.4.1.9.1 1.3 0 3.1-.6 5.1.4 5.7 3.7.3 1.4 1.1 2 2.7 1.3-2.6-6.3-5.1-12.6-7.9-18.9zm-5.3 11.7c1.3-3.3 2.6-6.5 4.1-10.1 1.5 3.7 2.7 6.8 4.1 10.1h-8.2z"></path></svg> 