<?xml version="1.0" encoding="utf-8"?>
<!-- Generator: Adobe Illustrator 22.0.1, SVG Export Plug-In . SVG Version: 6.00 Build 0)  -->
<svg version="1.1" id="Layer_1" xmlns="http://www.w3.org/2000/svg" xmlns:xlink="http://www.w3.org/1999/xlink" x="0px" y="0px"
	 viewBox="0 0 1424 482" style="enable-background:new 0 0 1424 482;" xml:space="preserve">
<style type="text/css">
	.st0{fill:#28A0AA;}
</style>
<polygon class="st0" points="114.5,113 185.4,369 225.8,369 154.9,113 "/>
<polygon class="st0" points="405.9,368.6 476.8,112.6 517.2,112.6 446.3,368.6 "/>
<polygon class="st0" points="591.3,368.6 662.2,112.6 668.7,112.6 597.8,368.6 "/>
<g>
	<polygon class="st0" points="374.3,112.6 333.9,112.6 263,368.6 303.4,368.6 354,185.5 392.1,323.1 412.3,249.9 	"/>
</g>
<polygon class="st0" points="232.3,112.6 191.9,112.6 250,323.1 270.2,249.9 "/>
<g>
	<path class="st0" d="M732.4,152.1h12.9v58.8h-12.9V152.1z"/>
	<path class="st0" d="M764.6,152.1h17.6l25,40.8h0.2v-40.8h12.9v58.8h-16.9L777.7,169h-0.2v41.8h-12.9V152.1z"/>
	<path class="st0" d="M839.7,152.1h17.6l25,40.8h0.2v-40.8h12.9v58.8h-16.9L852.8,169h-0.2v41.8h-12.9V152.1z"/>
	<path class="st0" d="M915.3,152.1h39.9v12h-27v11h25.5v12h-25.5v12h28.5v12h-41.4V152.1z"/>
	<path class="st0" d="M972.9,152.1h22.7c3,0,5.8,0.3,8.5,0.9c2.7,0.6,5,1.5,7.1,2.9c2,1.4,3.6,3.2,4.8,5.5c1.2,2.3,1.8,5.2,1.8,8.6
		c0,4.1-1.1,7.7-3.2,10.6c-2.2,2.9-5.3,4.7-9.5,5.5l14.9,24.8h-15.5l-12.3-23.5h-6.4v23.5h-12.9V152.1z M985.8,176.4h7.6
		c1.2,0,2.4,0,3.7-0.1c1.3-0.1,2.5-0.3,3.5-0.7c1-0.4,1.9-1.1,2.6-2c0.7-0.9,1-2.1,1-3.7c0-1.5-0.3-2.7-0.9-3.6
		c-0.6-0.9-1.4-1.6-2.3-2c-0.9-0.5-2-0.8-3.2-1c-1.2-0.2-2.4-0.2-3.6-0.2h-8.5V176.4z"/>
	<path class="st0" d="M1056.7,152.1h14.1l9.4,37.7h0.2l12.3-37.7h12l12.2,38.7h0.2l9.9-38.7h13.1l-17.2,58.8h-11.5l-12.9-40.7h-0.2
		l-12.9,40.7h-11.1L1056.7,152.1z"/>
	<path class="st0" d="M1153.8,152.1h39.9v12h-27v11h25.5v12h-25.5v12h28.5v12h-41.4V152.1z"/>
	<path class="st0" d="M1242.1,166.5c-1.1-1.3-2.5-2.3-4.3-2.9c-1.8-0.6-3.5-1-5.1-1c-0.9,0-1.9,0.1-2.9,0.3c-1,0.2-1.9,0.6-2.8,1
		c-0.9,0.5-1.6,1.1-2.2,1.9c-0.6,0.8-0.8,1.7-0.8,2.8c0,1.8,0.7,3.1,2,4.1c1.3,0.9,3,1.7,5,2.4c2,0.7,4.2,1.3,6.5,2
		c2.3,0.7,4.5,1.6,6.5,2.8c2,1.2,3.7,2.9,5,4.9c1.3,2,2,4.8,2,8.2c0,3.3-0.6,6.1-1.8,8.5c-1.2,2.4-2.9,4.5-4.9,6.1
		c-2.1,1.6-4.5,2.8-7.2,3.6c-2.7,0.8-5.6,1.2-8.7,1.2c-3.8,0-7.4-0.6-10.6-1.7c-3.3-1.2-6.3-3-9.1-5.6l9.2-10.1c1.3,1.8,3,3.1,5,4.1
		c2,1,4.1,1.5,6.3,1.5c1.1,0,2.1-0.1,3.2-0.4s2-0.6,2.9-1.1c0.9-0.5,1.5-1.1,2.1-1.9c0.5-0.8,0.8-1.7,0.8-2.7c0-1.8-0.7-3.2-2-4.2
		c-1.4-1-3.1-1.9-5.1-2.6c-2-0.7-4.3-1.4-6.6-2.2c-2.4-0.7-4.6-1.7-6.6-2.9c-2-1.2-3.7-2.8-5.1-4.8c-1.4-2-2-4.6-2-7.9
		c0-3.2,0.6-5.9,1.9-8.3c1.2-2.4,2.9-4.4,5-6c2.1-1.6,4.5-2.8,7.2-3.6c2.7-0.8,5.5-1.2,8.4-1.2c3.3,0,6.5,0.5,9.6,1.4
		c3.1,0.9,5.9,2.5,8.4,4.7L1242.1,166.5z"/>
	<path class="st0" d="M1279.6,163.5h-16.8v-11.5h46.5v11.5h-16.8v47.3h-12.9V163.5z"/>
	<path class="st0" d="M773.3,284.5c-1.6-2.1-3.6-3.7-6.1-4.8c-2.5-1.1-5-1.7-7.6-1.7c-3.2,0-6.1,0.6-8.7,1.8
		c-2.6,1.2-4.8,2.8-6.6,4.9s-3.3,4.5-4.3,7.3c-1,2.8-1.5,5.8-1.5,9c0,3,0.5,5.8,1.4,8.5c1,2.7,2.3,5,4.2,7c1.8,2,4,3.6,6.6,4.8
		c2.6,1.2,5.6,1.8,8.9,1.8c3.3,0,6.1-0.7,8.6-2c2.5-1.3,4.5-3.2,6.2-5.6l6.5,4.9c-0.4,0.6-1.2,1.4-2.2,2.5c-1.1,1.1-2.5,2.2-4.2,3.3
		c-1.8,1.1-3.9,2.1-6.4,2.9c-2.5,0.8-5.3,1.2-8.6,1.2c-4.5,0-8.5-0.9-12.1-2.6c-3.6-1.7-6.7-3.9-9.2-6.7c-2.5-2.8-4.5-5.9-5.8-9.4
		c-1.3-3.5-2-7-2-10.6c0-4.4,0.7-8.4,2.2-12.1c1.4-3.7,3.5-6.9,6-9.6c2.6-2.7,5.7-4.8,9.3-6.3c3.6-1.5,7.6-2.2,12-2.2
		c3.7,0,7.4,0.7,11,2.2c3.6,1.4,6.5,3.7,8.8,6.6L773.3,284.5z"/>
	<path class="st0" d="M797.3,272.2h7.7v23.5h29.4v-23.5h7.7v56.6h-7.7v-25.9H805v25.9h-7.7V272.2z"/>
	<path class="st0" d="M870.5,272.2v34.7c0,1.8,0.2,3.6,0.7,5.5c0.5,1.9,1.3,3.6,2.4,5.2s2.6,2.9,4.4,3.9c1.8,1,4.1,1.5,6.7,1.5
		c2.7,0,4.9-0.5,6.7-1.5c1.8-1,3.3-2.3,4.4-3.9s1.9-3.3,2.4-5.2c0.5-1.9,0.7-3.7,0.7-5.5v-34.7h7.7v35.9c0,3.3-0.6,6.3-1.7,9
		c-1.1,2.7-2.7,5-4.6,7c-2,2-4.3,3.5-7,4.6c-2.7,1.1-5.5,1.6-8.6,1.6c-3.1,0-6-0.5-8.6-1.6c-2.7-1.1-5-2.6-7-4.6c-2-2-3.5-4.3-4.6-7
		c-1.1-2.7-1.7-5.7-1.7-9v-35.9H870.5z"/>
	<path class="st0" d="M927.3,272.2h19.9c3.6,0,6.6,0.5,9,1.5c2.3,1,4.2,2.2,5.6,3.8c1.4,1.5,2.3,3.2,2.8,5.1
		c0.5,1.9,0.8,3.7,0.8,5.5c0,1.8-0.3,3.6-1,5.2c-0.6,1.7-1.6,3.2-2.8,4.6c-1.2,1.4-2.7,2.5-4.4,3.4c-1.7,0.9-3.7,1.5-5.8,1.7
		l16.1,25.8H958l-14.4-25H935v25h-7.7V272.2z M935,297.2h10.1c1.5,0,3-0.1,4.4-0.4c1.5-0.2,2.8-0.7,3.9-1.3c1.1-0.6,2.1-1.6,2.8-2.8
		c0.7-1.2,1-2.8,1-4.7c0-1.9-0.3-3.5-1-4.7c-0.7-1.2-1.6-2.1-2.8-2.8c-1.1-0.6-2.5-1.1-3.9-1.3c-1.5-0.2-2.9-0.4-4.4-0.4H935V297.2z
		"/>
	<path class="st0" d="M1022.9,284.5c-1.6-2.1-3.6-3.7-6.1-4.8c-2.5-1.1-5-1.7-7.6-1.7c-3.2,0-6.1,0.6-8.7,1.8
		c-2.6,1.2-4.8,2.8-6.6,4.9s-3.3,4.5-4.3,7.3c-1,2.8-1.5,5.8-1.5,9c0,3,0.5,5.8,1.4,8.5c1,2.7,2.3,5,4.2,7c1.8,2,4,3.6,6.6,4.8
		c2.6,1.2,5.6,1.8,8.9,1.8c3.3,0,6.1-0.7,8.6-2c2.5-1.3,4.5-3.2,6.2-5.6l6.5,4.9c-0.4,0.6-1.2,1.4-2.2,2.5c-1.1,1.1-2.5,2.2-4.2,3.3
		c-1.8,1.1-3.9,2.1-6.4,2.9c-2.5,0.8-5.3,1.2-8.6,1.2c-4.5,0-8.5-0.9-12.1-2.6c-3.6-1.7-6.7-3.9-9.2-6.7c-2.5-2.8-4.5-5.9-5.8-9.4
		c-1.3-3.5-2-7-2-10.6c0-4.4,0.7-8.4,2.2-12.1c1.4-3.7,3.5-6.9,6-9.6c2.6-2.7,5.7-4.8,9.3-6.3c3.6-1.5,7.6-2.2,12-2.2
		c3.7,0,7.4,0.7,11,2.2c3.6,1.4,6.5,3.7,8.8,6.6L1022.9,284.5z"/>
	<path class="st0" d="M1046.9,272.2h7.7v23.5h29.4v-23.5h7.7v56.6h-7.7v-25.9h-29.4v25.9h-7.7V272.2z"/>
</g>
</svg>
