<?xml version="1.0" encoding="utf-8"?>
<!-- Generator: Adobe Illustrator 22.0.1, SVG Export Plug-In . SVG Version: 6.00 Build 0)  -->
<svg version="1.1" id="Layer_1" xmlns="http://www.w3.org/2000/svg" xmlns:xlink="http://www.w3.org/1999/xlink" x="0px" y="0px"
	 viewBox="0 0 804.8 797.9" style="enable-background:new 0 0 804.8 797.9;" xml:space="preserve">
<style type="text/css">
	.st0{fill:#FFFFFF;}
</style>
<g>
	<polygon class="st0" points="200.7,112.4 271.6,368.4 312,368.4 241.1,112.4 	"/>
	<polygon class="st0" points="492,368.4 562.9,112.4 603.3,112.4 532.4,368.4 	"/>
	<g>
		<polygon class="st0" points="460.5,112.4 420,112.4 349.1,368.4 389.6,368.4 440.2,185.3 478.2,322.8 498.4,249.7 		"/>
	</g>
	<polygon class="st0" points="318.4,112.4 278,112.4 336.2,322.8 356.4,249.7 	"/>
</g>
<g>
	<path class="st0" d="M114.2,508.9h12.9v58.8h-12.9V508.9z"/>
	<path class="st0" d="M146.4,508.9H164l25,40.8h0.2v-40.8h12.9v58.8h-16.9l-25.6-41.8h-0.2v41.8h-12.9V508.9z"/>
	<path class="st0" d="M221.5,508.9h17.6l25,40.8h0.2v-40.8h12.9v58.8h-16.9l-25.6-41.8h-0.2v41.8h-12.9V508.9z"/>
	<path class="st0" d="M297.1,508.9H337v12h-27v11h25.5v12H310v12h28.5v12h-41.4V508.9z"/>
	<path class="st0" d="M354.7,508.9h22.7c3,0,5.8,0.3,8.5,0.9c2.7,0.6,5,1.5,7.1,2.9c2,1.4,3.6,3.2,4.8,5.5c1.2,2.3,1.8,5.2,1.8,8.6
		c0,4.1-1.1,7.7-3.2,10.6c-2.2,2.9-5.3,4.7-9.5,5.5l14.9,24.8h-15.5L374,544.2h-6.4v23.5h-12.9V508.9z M367.6,533.2h7.6
		c1.2,0,2.4,0,3.7-0.1c1.3-0.1,2.5-0.3,3.5-0.7c1-0.4,1.9-1.1,2.6-2c0.7-0.9,1-2.1,1-3.7c0-1.5-0.3-2.7-0.9-3.6
		c-0.6-0.9-1.4-1.6-2.3-2c-0.9-0.5-2-0.8-3.2-1c-1.2-0.2-2.4-0.2-3.6-0.2h-8.5V533.2z"/>
	<path class="st0" d="M438.5,508.9h14.1l9.4,37.7h0.2l12.3-37.7h12l12.2,38.7h0.2l9.9-38.7h13.1l-17.2,58.8h-11.5L480.2,527H480
		l-12.9,40.7h-11.1L438.5,508.9z"/>
	<path class="st0" d="M535.6,508.9h39.9v12h-27v11h25.5v12h-25.5v12H577v12h-41.4V508.9z"/>
	<path class="st0" d="M623.9,523.2c-1.1-1.3-2.5-2.3-4.3-2.9c-1.8-0.6-3.5-1-5.1-1c-0.9,0-1.9,0.1-2.9,0.3c-1,0.2-1.9,0.6-2.8,1
		c-0.9,0.5-1.6,1.1-2.2,1.9c-0.6,0.8-0.8,1.7-0.8,2.8c0,1.8,0.7,3.1,2,4.1c1.3,0.9,3,1.7,5,2.4c2,0.7,4.2,1.3,6.5,2s4.5,1.6,6.5,2.8
		c2,1.2,3.7,2.9,5,4.9c1.3,2,2,4.8,2,8.2c0,3.3-0.6,6.1-1.8,8.5c-1.2,2.4-2.9,4.5-4.9,6.1c-2.1,1.6-4.5,2.8-7.2,3.6
		c-2.7,0.8-5.6,1.2-8.7,1.2c-3.8,0-7.4-0.6-10.6-1.7c-3.3-1.2-6.3-3-9.1-5.6l9.2-10.1c1.3,1.8,3,3.1,5,4.1c2,1,4.1,1.5,6.3,1.5
		c1.1,0,2.1-0.1,3.2-0.4s2-0.6,2.9-1.1c0.9-0.5,1.5-1.1,2.1-1.9c0.5-0.8,0.8-1.7,0.8-2.7c0-1.8-0.7-3.2-2-4.2
		c-1.4-1-3.1-1.9-5.1-2.6c-2-0.7-4.3-1.4-6.6-2.2c-2.4-0.7-4.6-1.7-6.6-2.9c-2-1.2-3.7-2.8-5.1-4.8c-1.4-2-2-4.6-2-7.9
		c0-3.2,0.6-5.9,1.9-8.3s2.9-4.4,5-6c2.1-1.6,4.5-2.8,7.2-3.6c2.7-0.8,5.5-1.2,8.4-1.2c3.3,0,6.5,0.5,9.6,1.4
		c3.1,0.9,5.9,2.5,8.4,4.7L623.9,523.2z"/>
	<path class="st0" d="M661.4,520.3h-16.8v-11.5h46.5v11.5h-16.8v47.3h-12.9V520.3z"/>
	<path class="st0" d="M260.5,641.3c-1.6-2.1-3.6-3.7-6.1-4.8s-5-1.7-7.6-1.7c-3.2,0-6.1,0.6-8.7,1.8c-2.6,1.2-4.8,2.8-6.6,4.9
		s-3.3,4.5-4.3,7.3c-1,2.8-1.5,5.8-1.5,9c0,3,0.5,5.8,1.4,8.5c1,2.7,2.3,5,4.2,7c1.8,2,4,3.6,6.6,4.8c2.6,1.2,5.6,1.8,8.9,1.8
		c3.3,0,6.1-0.7,8.6-2s4.5-3.2,6.2-5.6l6.5,4.9c-0.4,0.6-1.2,1.4-2.2,2.5c-1.1,1.1-2.5,2.2-4.2,3.3c-1.8,1.1-3.9,2.1-6.4,2.9
		c-2.5,0.8-5.3,1.2-8.6,1.2c-4.5,0-8.5-0.9-12.1-2.6c-3.6-1.7-6.7-3.9-9.2-6.7c-2.5-2.8-4.5-5.9-5.8-9.4c-1.3-3.5-2-7-2-10.6
		c0-4.4,0.7-8.4,2.2-12.1c1.4-3.7,3.5-6.9,6-9.6c2.6-2.7,5.7-4.8,9.3-6.3c3.6-1.5,7.6-2.2,12-2.2c3.7,0,7.4,0.7,11,2.2
		c3.6,1.4,6.5,3.7,8.8,6.6L260.5,641.3z"/>
	<path class="st0" d="M284.6,629h7.7v23.5h29.4V629h7.7v56.6h-7.7v-25.9h-29.4v25.9h-7.7V629z"/>
	<path class="st0" d="M357.7,629v34.7c0,1.8,0.2,3.6,0.7,5.5c0.5,1.9,1.3,3.6,2.4,5.2s2.6,2.9,4.4,3.9c1.8,1,4.1,1.5,6.7,1.5
		c2.7,0,4.9-0.5,6.7-1.5c1.8-1,3.3-2.3,4.4-3.9s1.9-3.3,2.4-5.2c0.5-1.9,0.7-3.7,0.7-5.5V629h7.7v35.9c0,3.3-0.6,6.3-1.7,9
		c-1.1,2.7-2.7,5-4.6,7c-2,2-4.3,3.5-7,4.6c-2.7,1.1-5.5,1.6-8.6,1.6c-3.1,0-6-0.5-8.6-1.6s-5-2.6-7-4.6c-2-2-3.5-4.3-4.6-7
		c-1.1-2.7-1.7-5.7-1.7-9V629H357.7z"/>
	<path class="st0" d="M414.6,629h19.9c3.6,0,6.6,0.5,9,1.5c2.3,1,4.2,2.2,5.6,3.8c1.4,1.5,2.3,3.2,2.8,5.1c0.5,1.9,0.8,3.7,0.8,5.5
		c0,1.8-0.3,3.6-1,5.2c-0.6,1.7-1.6,3.2-2.8,4.6c-1.2,1.4-2.7,2.5-4.4,3.4c-1.7,0.9-3.7,1.5-5.8,1.7l16.1,25.8h-9.6l-14.4-25h-8.6
		v25h-7.7V629z M422.3,654h10.1c1.5,0,3-0.1,4.4-0.4c1.5-0.2,2.8-0.7,3.9-1.3c1.1-0.6,2.1-1.6,2.8-2.8c0.7-1.2,1-2.8,1-4.7
		c0-1.9-0.3-3.5-1-4.7c-0.7-1.2-1.6-2.1-2.8-2.8c-1.1-0.6-2.5-1.1-3.9-1.3c-1.5-0.2-2.9-0.4-4.4-0.4h-10.1V654z"/>
	<path class="st0" d="M510.1,641.3c-1.6-2.1-3.6-3.7-6.1-4.8s-5-1.7-7.6-1.7c-3.2,0-6.1,0.6-8.7,1.8c-2.6,1.2-4.8,2.8-6.6,4.9
		s-3.3,4.5-4.3,7.3c-1,2.8-1.5,5.8-1.5,9c0,3,0.5,5.8,1.4,8.5c1,2.7,2.3,5,4.2,7c1.8,2,4,3.6,6.6,4.8c2.6,1.2,5.6,1.8,8.9,1.8
		c3.3,0,6.1-0.7,8.6-2s4.5-3.2,6.2-5.6l6.5,4.9c-0.4,0.6-1.2,1.4-2.2,2.5c-1.1,1.1-2.5,2.2-4.2,3.3c-1.8,1.1-3.9,2.1-6.4,2.9
		c-2.5,0.8-5.3,1.2-8.6,1.2c-4.5,0-8.5-0.9-12.1-2.6c-3.6-1.7-6.7-3.9-9.2-6.7c-2.5-2.8-4.5-5.9-5.8-9.4c-1.3-3.5-2-7-2-10.6
		c0-4.4,0.7-8.4,2.2-12.1c1.4-3.7,3.5-6.9,6-9.6c2.6-2.7,5.7-4.8,9.3-6.3c3.6-1.5,7.6-2.2,12-2.2c3.7,0,7.4,0.7,11,2.2
		c3.6,1.4,6.5,3.7,8.8,6.6L510.1,641.3z"/>
	<path class="st0" d="M534.2,629h7.7v23.5h29.4V629h7.7v56.6h-7.7v-25.9h-29.4v25.9h-7.7V629z"/>
</g>
</svg>
