<?xml version="1.0" encoding="UTF-8"?> <svg xmlns="http://www.w3.org/2000/svg" id="Layer_1" viewBox="0 0 487.4 225.7"><style>.st0{fill:#fff}</style><path class="st0" d="M41.5 115.4c-14.4-.2-27.6-3.6-38.9-13.2-2.7-2.3-3.8-4.2-.9-7.2 2.1-2.1 3.2-6.1 5.5-6.8 2.6-.8 4.5 3.2 6.9 4.8 10.9 7.5 22.8 10.6 36 8.4 4.9-.8 9.2-2.7 12.7-6.5 6.9-7.6 5.3-17.9-3.8-22.6-7.9-4.1-16.6-6-25.2-8-6.4-1.5-12.6-3.3-18.2-6.6-16-9.2-18.5-30.1-5-42.8 7.1-6.7 15.9-9.4 25.4-10 15-1.1 28.7 2.2 40.6 11.9 2.7 2.2 3.7 4.1 1 6.8-.6.6-.9 1.4-1.4 2.1-3.5 5.1-3.4 5.1-8.4 1.2-10.8-8.3-23.1-10.5-36.3-7.7-3.5.8-6.5 2.5-9.1 5-7.4 7.1-6 16.3 3.2 20.8 6.8 3.3 14.2 4.8 21.5 6.5 7.8 1.8 15.5 3.8 22.4 8.2 17.6 11.1 18.3 35.4 1.4 47.6-8.8 6.2-18.9 8-29.4 8.1zM121.6 215.2c-8.1 7.6-16.7 11.3-27 10.2-9.7-1-16.5-6.9-16.9-16.6-.6-16.1-.3-32.3-.3-48.4 0-5.1 4.2-2.2 6.4-2.8 2.6-.6 3.8.5 3.8 3.5-.1 12.8-.1 25.6-.1 38.5 0 14.3 8.9 20.5 22.4 15.5 3.1-1.1 6-2.9 8.6-5 2.4-1.9 3.4-4.2 3.3-7.3-.2-13.3.2-26.6-.2-40-.1-4.8 1.8-5.3 5.8-5.4 4-.1 5 1.2 4.9 5.1-.2 18.8-.2 37.6 0 56.4 0 3.6-.4 5.5-4.8 5.3-3.8-.2-6.7-.2-5.8-5.2.3-.9 0-1.9-.1-3.8zM193 172.3c-5.9-5.5-12.8-8.2-20.9-7.9-2.4.1-4.6.5-6.8 1.5-3.7 1.7-6.5 4.4-6.5 8.7 0 4.4 3.2 6.4 6.8 7.6 3.8 1.3 7.7 2.2 11.5 3.2 5.2 1.3 10.3 2.6 14.8 5.7 9.5 6.5 10.4 20.5 1.7 28.1-10.7 9.4-35.3 8.1-44.9-2.2-3.3-3.5 1-4.8 2-7 1.4-3 2.8-.6 4.1.4 7.5 5.8 15.8 8.4 25.3 6.1 5.5-1.3 9-5 9.3-9.7.4-5.7-3.4-8-7.9-9.5-5.7-1.8-11.5-3.2-17.3-5-6.3-2-12.2-4.7-14.7-11.6-3.4-9.3 1.5-19.1 11.7-22.7 10.2-3.6 20.4-2.9 29.9 2.5 7.6 4.2 7.7 5.2 1.9 11.8zM218.5 190.7c0-6.2-.3-12.3.1-18.5.3-4.7-1.3-6.4-5.8-5.6-4.5.8-5.5-1.2-5.5-5.5 0-5 3.4-3.8 5.8-3.5 4.4.5 6.1-1.1 5.4-5.5-.3-2.3-.1-4.7-.1-7 0-5 4.6-7.8 9.1-5.6 1.4.7 1.1 1.9 1.1 3 0 3.8.1 7.7 0 11.5-.1 2.6.7 3.7 3.4 3.5 1.8-.2 3.7.2 5.5-.1 4.3-.7 4.9 1.6 4.9 5.2 0 3-.9 4-4 4-9.7.1-9.7.3-9.7 10.1 0 10-.1 20 0 30 .1 8.6 3.6 11.2 11.6 8.4 1.6-.6 2.7-.7 3 1 .4 2.2 3.6 4.4.4 6.6-5.4 3.7-11.3 3.7-17.2 1.7-5.4-1.8-7.6-6.4-7.8-11.7-.3-7.3-.1-14.7-.2-22 .1 0 .1 0 0 0zM384.4 178c0 13.8-.2 27.7.1 41.5.1 4.6-2.1 4.6-5.4 4.7-3.6.1-5.3-.5-5.3-4.8.2-27.5.2-55 0-82.5 0-5.1 2.8-4.3 6-4.6 3.8-.3 4.8 1.1 4.7 4.8-.3 13.6-.1 27.3-.1 40.9zM266.9 168.3c5.5-6.4 10.8-10.3 17.6-11.6 2-.4 5-1.2 4.2 2.5-.5 2.5 3.1 7.3-3.3 7.3-5.8 0-10.5 2.8-14.9 6.2-2.6 2.1-3.8 4.7-3.8 8.2.2 13-.1 26 .2 38.9.1 4.3-2.1 4.3-5.2 4.3s-5.3.1-5.2-4.3c.2-19.5.2-38.9 0-58.4 0-4.2 2.1-4 5-3.9 2.7.1 6-.8 5.4 4-.2 1.7 0 3.5 0 6.8zM415.2 190.9c0 9.6-.3 19.3.1 28.9.2 4.9-2.6 4.2-5.7 4.4-3.4.2-5.1-.4-5-4.5.2-19.3.2-38.6 0-57.9-.1-4.3 2-4.4 5.1-4.3 3.1.1 5.8-.3 5.6 4.4-.3 9.6-.1 19.3-.1 29zM410 148.2c-3.7 0-7-3.3-7-7 0-3.8 3.3-7.1 7-6.9 4 .3 6.4 2.5 6.6 6.7.3 4-2.8 7.2-6.6 7.2zM347.8 48.8c-1.9-1.7-1.9-2.8 0-4.7 6.2-6.3 10.6-13.7 10.7-22.9.2-12.4-8-21.1-20.2-21.2-12.7-.2-21.5 8-21.7 20.4-.2 8.9 3.1 16.6 9 23.2 1.6 1.8 1.9 2.9 0 4.8-6 5.8-11.8 11.8-17.5 17.9-2 2.2-3.2 1.9-5.1-.1-5.4-5.7-10.8-11.4-16.4-16.8-2.3-2.2-2.5-3.7-.3-6.1 6-6.8 8.7-14.9 8.3-23.9C294.1 8.6 285.7.7 274.2.2c-10.6-.5-19 6.9-20.8 17.5-1.8 10.9 2.7 19.2 10 26.4 2.2 2.2 2.1 3.4 0 5.5-13.8 13.4-20.5 29.7-19.1 49.1v6c.2 11.6-1.5 8.2 9.2 9.5 2.8.4 3.4-1 3.3-3.4-.1-4.3.1-8.7 0-13-.4-15.2 4.3-28.4 15.4-39.2 2.3-2.3 3.4-2.5 5.7-.1 7.8 8.2 15.9 16.1 23.7 24.4 3 3.2 4.7 3.8 8 .2 7.9-8.6 16.3-16.7 24.3-25.1 1.9-2 2.9-2.1 5 0 8.6 8.7 14.5 18.6 15.1 31.2.2 5.2.5 10.3.5 15.5.1 9.9 0 9.9 9.7 8.9 2-.2 3-.8 3.1-2.9.7-23.1-.9-45.2-19.5-61.9zm-66-26.3c-.1.6-.2 2.1-.6 3.5-1.1 4.1-2.8 9.7-6.4 10-4.1.3-6.5-5.1-8.2-9-1.9-4.3-1.8-8.9 1.9-12.5 2.6-2.5 5.8-2.4 8.9-1.1 3.4 1.5 4.6 4.6 4.4 9.1zm56.8 12.8c-1.1 1.2-2.1 1.4-3.3 0-3.7-4.3-6.2-9-5.9-14.9.3-5.3 3.3-8.1 8.8-7.9 4.9.1 7.7 3.3 7.5 8.4.1 6.1-3.4 10.3-7.1 14.4zM207.4 55.1c-.2-2.2-.4-4.3-.8-6.4-3.4-19.8-13.8-34.5-33-41-19.4-6.5-37.9-4-53.5 10.4-13.8 12.8-17.5 29.3-16.5 47.4 2 35.9 35.7 58.6 69.7 47 20.9-7.1 34.2-27.4 34.1-52.4 0-1.6.1-3.3 0-5zm-23.7 29.7c-7.8 12.3-20.3 17.9-34.7 15.4-13.2-2.2-24-13.1-27.3-27.9-.9-4.1-1.4-8.2-1.3-11.2-.1-11.3 2.2-20.7 8.5-28.8 14.1-18.2 40.5-17.6 53.8 1.3 9.8 14 10.3 36.5 1 51.2zM484.5 37.3c-.2-14.2-8.3-25.5-21.9-29.7-18.5-5.8-36.3-3.7-52.4 7.5-9.2 6.3-8.9 6.5-2.7 15.5 1.8 2.6 2.7 2.3 4.8.3 8-7.7 17.6-11.7 28.8-12 12.6-.3 23.1 5.2 26 14.5 2.6 8.4.8 16.9 1.5 26.8-9.4-10.2-20.1-13.6-31.9-14.5-21.4-1.8-38.9 12.4-40 32.8-1.1 20.6 15 36.8 36.6 36.9 13.2 0 24.8-4.1 34.8-14.3.7 11.6.7 11.6 11.5 11.6h1c3 .4 4-.7 4-3.8 0-23.9.2-47.7-.1-71.6zm-16 42c0 13.6-5.1 19.9-17.7 23-5.1 1.2-10.2 1.5-15.4 1.1-12.2-1.1-21.3-10-21.8-21.4-.5-12.3 6.9-21.4 19.5-23.8 8.1-1.6 16-.5 23.4 2.8 8.3 3.7 14.4 9.1 12 18.3zM487.3 178.9c-.1-8.7-3.1-15.9-11.4-20-11.4-5.6-29.1-2.7-38.4 5.9-3.6 3.3-.1 4.9 1 7 1.7 3.3 3.2.7 4.5-.5 6.1-5.1 13.1-6.9 21-6 6.8.8 12.1 5.1 12.6 10.8.4 4.4.1 8.9.1 14.4-6.2-6.4-13.1-8.3-20.7-8.6-12.3-.5-21.9 6.8-23.7 18.2-1.8 11.5 4.7 21.8 16.1 24.6 8.8 2.2 17.2.7 24.7-4.6 1.1-.8 1.7-2.5 3.6-2.1.1.6.3 1.1.2 1.5-.9 5.7 3.2 4.3 6.3 4.7 3.9.4 4.3-1.7 4.2-4.8-.2-13.5 0-27-.1-40.5zm-10.5 25c0 9.8-9.6 16.1-21.3 14.1-8.5-1.5-13.5-7.5-13-15.5.5-7.5 6.6-12.8 14.9-13.2 3-.1 6-.1 8.9 1 6.7 2.4 11.8 4.7 10.5 13.6zM353.6 219.4c-.2-13.7 0-27.3-.1-41-.1-12-6.8-20-18.5-21.8-5.8-.9-11.6-.8-17.4.7-5.1 1.4-9.4 4-13.6 7.1s-.5 5.1.7 7.3c1.8 3.3 3.2.5 4.5-.5 3.2-2.5 6.6-4.5 10.5-5.5 10.3-2.7 20.2.9 22.6 8.4 1.6 5.1.9 10.3.7 15.9-8.3-6.4-11.8-7.7-20.6-8.2-13.6-.7-23.9 8.1-24.2 20.9-.3 13.3 9.1 22.6 22.9 22.8 8.2.1 15.2-2.7 21.8-8.7.1 1.6.3 2.1.2 2.6-.9 4.9 2.3 4.6 5.7 4.8 4.1.2 4.8-1.2 4.8-4.8zm-18.2-3.2c-4.8 2.1-9.9 2.8-15.1 1.5-7.3-1.8-11.7-7.2-11.6-14.2.2-7.1 5.3-12.8 12.6-13.9 4.1-.6 8.4-.6 12.3 1 6.1 2.6 10.8 4.7 9.6 13.9 1.6 6.3-2.7 9.4-7.8 11.7zM56.6 176.9c-.1-9.2-5-16.4-13.5-19-12.9-3.9-24.9-2.1-35.7 6.5-4 3.2-.6 5.1.6 7.4 1.8 3.3 3.2.6 4.5-.5 6.1-5.2 13.1-6.9 20.9-6 8.2.9 12.9 6 13 14.3.1 3.3 0 6.6 0 11.1-6.4-6.4-13.4-8.5-21.1-8.8-12.1-.4-22.2 7.3-23.7 18.4-1.5 11.6 5.4 22 17 24.6 8.6 1.9 16.9.4 24.2-5 1.1-.8 1.8-2.5 3.7-2 0 .7.2 1.4.1 2-.9 5.1 2.7 4 5.6 4.2 3.2.3 4.8-.5 4.7-4.3-.3-14.2-.1-28.6-.3-42.9zm-10.1 26.2c0 7.9-1.9 10.9-8.7 13.4-4.6 1.7-9.3 2.3-14.2 1.1-7.3-1.8-11.7-7.1-11.6-14.1.1-7 4.7-12.5 12-13.9 5.3-1 10.6-.4 15.5 2 5.2 2.6 8.5 6.1 7 11.5z"></path></svg> 